<?xml version="1.0" standalone="no"?>
<!DOCTYPE svg PUBLIC "-//W3C//DTD SVG 20010904//EN"
 "http://www.w3.org/TR/2001/REC-SVG-20010904/DTD/svg10.dtd">
<svg version="1.0" xmlns="http://www.w3.org/2000/svg"
 width="300.000000pt" height="300.000000pt" viewBox="0 0 300.000000 300.000000"
 preserveAspectRatio="xMidYMid meet">
<metadata>
Created by potrace 1.10, written by Peter Selinger 2001-2011
</metadata>
<g transform="translate(0.000000,300.000000) scale(0.100000,-0.100000)"
fill="#000000" stroke="none">
<path d="M797 2373 c-4 -3 -7 -38 -7 -77 l0 -71 78 -45 77 -45 3 -555 c2 -480
0 -561 -13 -596 -19 -49 -57 -87 -109 -109 -38 -16 -39 -16 -32 -62 3 -25 6
-63 6 -84 0 -38 2 -40 70 -74 l70 -35 615 0 c484 0 617 3 620 13 7 22 25 257
32 414 l6 153 -67 30 c-42 19 -87 32 -118 33 l-51 2 -39 -135 c-63 -213 -70
-218 -299 -221 -153 -1 -154 -1 -166 22 -10 19 -12 148 -10 566 l2 542 29 30
c36 37 61 47 164 65 46 8 85 16 87 18 2 2 1 39 -2 81 l-6 78 -68 35 -69 34
-398 0 c-219 0 -402 -3 -405 -7z m795 -90 l5 -52 -71 -11 c-39 -6 -85 -16
-103 -21 -36 -11 -100 -77 -108 -111 -3 -13 -4 -266 -3 -564 l3 -541 28 -36
c52 -68 69 -72 272 -69 99 1 194 7 212 13 62 20 95 72 137 217 30 100 43 131
54 127 7 -3 20 -5 28 -5 18 0 18 -77 -1 -315 -8 -99 -15 -186 -15 -192 0 -10
-127 -13 -600 -13 l-600 0 0 49 c0 27 -2 55 -5 63 -3 8 16 25 47 43 40 23 59
42 80 84 l28 53 0 569 c0 649 11 580 -98 640 l-62 34 0 47 0 48 378 2 c207 2
380 1 383 -2 4 -3 9 -28 11 -57z m77 28 c31 -16 38 -25 39 -50 0 -17 -1 -31
-4 -31 -3 0 -22 9 -44 20 -32 17 -39 25 -38 50 1 16 3 30 5 30 2 0 21 -9 42
-19z m4 -77 c31 -16 50 -35 42 -42 -6 -6 -85 38 -85 48 0 14 6 13 43 -6z m-22
-48 c33 -14 28 -24 -11 -25 -36 -1 -81 -9 -87 -15 -3 -3 -12 -6 -20 -6 -7 0
-26 -11 -41 -24 -33 -30 -37 -30 -86 -11 -29 12 -36 19 -28 27 9 9 21 7 48 -6
20 -9 39 -14 42 -11 3 2 -9 10 -26 16 -18 6 -32 15 -32 20 0 15 52 31 87 27
17 -2 29 0 26 5 -3 5 12 8 35 5 22 -2 38 0 36 4 -8 13 21 9 57 -6z m-244 -93
c21 -10 39 -18 41 -19 2 -1 -17 -51 -24 -62 -1 -2 -16 4 -34 13 -18 9 -34 14
-38 11 -3 -4 13 -14 36 -23 23 -9 42 -22 42 -30 0 -17 -12 -17 -55 4 -30 14
-35 22 -35 51 0 30 14 72 25 72 2 0 21 -8 42 -17z m-19 -123 c23 -11 42 -27
42 -35 0 -19 -4 -19 -41 1 -17 8 -33 14 -35 11 -2 -2 14 -12 36 -22 22 -10 40
-24 40 -32 0 -17 -12 -17 -55 4 -31 15 -35 21 -35 55 0 21 1 38 3 38 2 0 22
-9 45 -20z m2 -90 c22 -11 40 -27 40 -35 0 -19 -3 -19 -50 5 -22 11 -40 27
-40 35 0 19 3 19 50 -5z m40 -77 c0 -17 -12 -16 -55 4 -21 10 -35 24 -35 35 0
17 3 16 45 -4 25 -12 45 -28 45 -35z m-42 -12 c33 -17 38 -24 39 -55 1 -41 2
-41 -38 -20 -17 8 -33 13 -36 10 -4 -3 10 -12 30 -21 19 -8 39 -20 42 -26 13
-20 -5 -22 -45 -4 -37 17 -40 21 -40 57 l0 39 31 -16 c17 -9 33 -14 36 -11 4
3 -10 13 -30 21 -21 8 -37 22 -37 30 0 19 3 19 48 -4z m2 -131 c22 -11 40 -27
40 -35 0 -19 -4 -19 -41 1 -17 8 -33 14 -35 11 -2 -2 14 -12 36 -22 22 -10 40
-24 40 -32 0 -17 -12 -17 -55 4 -31 15 -35 21 -35 55 0 21 2 38 5 38 3 0 24
-9 45 -20z m-1 -90 c34 -17 39 -24 39 -55 0 -19 -1 -35 -3 -35 -1 0 -19 7 -39
15 -48 20 -46 10 4 -15 22 -11 40 -25 40 -30 0 -14 -12 -13 -54 5 -33 14 -36
19 -36 55 l0 41 30 -16 c16 -8 33 -15 37 -15 4 1 -9 10 -29 21 -21 11 -38 26
-38 34 0 19 3 19 49 -5z m39 -164 c4 -20 -1 -20 -39 0 -17 8 -33 13 -35 11 -3
-2 9 -10 25 -17 34 -14 57 -37 48 -47 -4 -3 -25 2 -47 12 -36 16 -40 21 -40
56 l0 38 43 -19 c23 -10 43 -26 45 -34z m-38 -56 c22 -11 40 -27 40 -35 0 -19
-3 -19 -50 5 -22 11 -40 27 -40 35 0 19 3 19 50 -5z m40 -77 c0 -17 -12 -16
-55 4 -21 10 -35 24 -35 35 0 17 3 16 45 -4 25 -12 45 -28 45 -35z m-41 -13
c34 -17 39 -24 39 -55 0 -40 1 -40 -39 -19 -17 8 -33 13 -36 10 -4 -3 10 -12
30 -21 37 -15 54 -32 43 -42 -3 -4 -18 -1 -32 6 -15 6 -29 10 -31 7 -3 -3 11
-12 31 -20 20 -8 36 -22 36 -30 0 -20 -4 -20 -41 0 -17 8 -33 14 -35 11 -2 -2
14 -12 36 -22 22 -10 40 -24 40 -32 0 -17 -12 -17 -54 4 l-35 16 0 84 0 83 30
-16 c17 -8 33 -13 36 -10 3 3 -11 12 -31 20 -20 8 -36 22 -36 30 0 20 3 20 49
-4z m751 -60 c33 -17 40 -26 40 -50 0 -36 0 -36 -50 -10 -32 17 -39 25 -38 50
1 16 3 30 5 30 2 0 22 -9 43 -20z m40 -108 c0 -10 -6 -12 -17 -7 -10 4 -30 12
-45 17 -17 6 -28 17 -28 29 0 18 2 18 45 -3 25 -12 45 -28 45 -36z m-37 -12
c36 -14 38 -16 33 -50 -3 -19 -5 -36 -6 -38 0 -1 -14 5 -31 13 -17 9 -33 14
-36 11 -4 -3 10 -13 30 -21 21 -8 37 -22 37 -30 0 -19 -4 -19 -41 1 -17 8 -33
14 -35 11 -2 -2 14 -12 36 -22 26 -12 40 -25 40 -36 0 -18 -3 -17 -46 3 -45
22 -45 23 -43 68 4 69 6 72 41 54 16 -9 32 -13 35 -10 4 3 -10 13 -30 21 -21
8 -37 22 -37 31 0 9 3 14 8 12 4 -2 24 -10 45 -18z m-753 -40 c22 -11 40 -27
40 -35 0 -19 -4 -19 -41 1 -17 8 -33 14 -35 11 -2 -2 14 -12 36 -22 29 -13 40
-24 40 -40 0 -11 5 -26 12 -33 7 -7 8 -12 3 -12 -14 0 -67 36 -65 45 1 4 -6
12 -14 18 -15 12 -33 87 -21 87 3 0 24 -9 45 -20z m740 -130 c22 -11 40 -27
40 -35 0 -19 -3 -19 -50 5 -22 11 -40 27 -40 35 0 19 3 19 50 -5z m-10 -40
c22 -11 40 -27 40 -35 0 -19 -3 -19 -50 5 -22 11 -40 27 -40 35 0 19 3 19 50
-5z m40 -78 c0 -10 -6 -12 -17 -7 -10 4 -30 12 -45 17 -17 6 -28 17 -28 29 0
18 2 18 45 -3 25 -12 45 -28 45 -36z m-37 -12 c36 -13 37 -16 30 -50 -3 -19
-6 -43 -5 -52 1 -15 -3 -15 -42 4 -35 17 -43 26 -44 49 -1 34 0 34 39 13 17
-8 33 -13 36 -10 4 3 -10 13 -30 21 -21 8 -37 22 -37 31 0 9 3 14 8 12 4 -2
24 -10 45 -18z m-47 -115 c18 -14 17 -14 -9 -15 -16 0 -38 5 -49 11 -12 6 -18
7 -14 1 7 -11 -168 -7 -186 4 -7 4 -8 2 -4 -4 8 -14 5 -14 -51 -3 -23 5 -41 5
-39 2 6 -9 -260 -4 -275 5 -7 4 -9 3 -6 -3 7 -11 -256 -9 -274 3 -8 4 -9 3 -5
-4 8 -14 6 -14 -51 -3 -24 5 -43 6 -43 2 0 -11 -134 -6 -155 6 -15 9 125 11
562 12 486 0 584 -2 599 -14z"/>
<path d="M900 2276 c0 -2 25 -18 55 -35 96 -54 90 -12 90 -671 0 -475 -2 -581
-14 -610 -23 -54 -72 -119 -108 -142 -19 -11 -33 -24 -31 -29 3 -9 1067 -13
1076 -5 2 2 6 39 9 83 l6 78 -38 -43 c-71 -82 -91 -87 -325 -87 -192 0 -208 1
-246 22 -44 23 -83 65 -112 117 -15 28 -17 81 -17 586 0 551 0 555 22 596 29
55 93 111 142 124 23 6 41 13 41 15 0 3 -124 5 -275 5 -151 0 -275 -2 -275 -4z
m390 -42 c0 -3 -11 -20 -25 -38 -55 -72 -55 -74 -55 -656 0 -370 3 -548 11
-571 6 -19 31 -59 54 -91 24 -31 41 -59 38 -62 -10 -9 -311 -7 -317 2 -3 5 8
28 25 53 59 88 59 90 59 703 l0 561 -25 53 -24 52 129 0 c72 0 130 -3 130 -6z"/>
<path d="M1383 2059 c22 -11 41 -18 44 -15 6 6 -52 36 -69 36 -7 -1 4 -10 25
-21z"/>
</g>
</svg>
